<?xml version="1.0" encoding="UTF-8"?>
<svg id="Layer_1" data-name="Layer 1" xmlns="http://www.w3.org/2000/svg" xmlns:xlink="http://www.w3.org/1999/xlink" viewBox="0 0 351.88 94.02">
  <defs>
    <style>
      .cls-1 {
        clip-path: url(#clippath);
      }

      .cls-2 {
        fill: none;
      }

      .cls-2, .cls-3, .cls-4, .cls-5, .cls-6 {
        stroke-width: 0px;
      }

      .cls-3 {
        fill: #292929;
      }

      .cls-7 {
        clip-path: url(#clippath-1);
      }

      .cls-8 {
        clip-path: url(#clippath-3);
      }

      .cls-9 {
        clip-path: url(#clippath-2);
      }

      .cls-4 {
        fill: #0b1c98;
      }

      .cls-5 {
        fill: #fff;
      }

      .cls-6 {
        fill: #efefef;
        fill-rule: evenodd;
      }
    </style>
    <clipPath id="clippath">
      <rect class="cls-2" width="94.02" height="94.02"/>
    </clipPath>
    <clipPath id="clippath-1">
      <rect class="cls-2" width="94.02" height="94.02" rx="26" ry="26"/>
    </clipPath>
    <clipPath id="clippath-2">
      <rect class="cls-2" x="9.35" y="18.82" width="17.98" height="56"/>
    </clipPath>
    <clipPath id="clippath-3">
      <rect class="cls-2" x="67.33" y="18.82" width="17.49" height="56"/>
    </clipPath>
  </defs>
  <g class="cls-1">
    <g class="cls-7">
      <path class="cls-4" d="M0,0h94.02v94.02H0V0Z"/>
    </g>
  </g>
  <g class="cls-9">
    <path class="cls-6" d="M25.02,25.09h1.57v-6.27h-1.57c-5.19,0-9.4,4.21-9.4,9.4v10.96c0,.98-.46,1.91-1.25,2.51l-3.76,2.82c-.75.56-1.21,1.44-1.25,2.38-.04.94.34,1.85,1.05,2.47l4.16,3.7c.67.59,1.05,1.45,1.05,2.34v10.41c0,5.19,4.21,9.4,9.4,9.4h1.57v-6.27h-1.57c-1.73,0-3.13-1.4-3.13-3.13v-10.41c0-2.68-1.15-5.24-3.16-7.03l-1.3-1.15.69-.52c2.37-1.78,3.76-4.56,3.76-7.52v-10.96c0-1.73,1.4-3.13,3.13-3.13Z"/>
  </g>
  <g class="cls-8">
    <path class="cls-6" d="M69.3,25.09h-1.56v-6.27h1.56c5.19,0,9.4,4.21,9.4,9.4v10.96c0,.98.46,1.91,1.26,2.51l3.76,2.82c.76.56,1.21,1.44,1.25,2.38.04.94-.34,1.85-1.05,2.47l-4.16,3.7c-.67.59-1.05,1.45-1.05,2.34v10.41c0,5.19-4.2,9.4-9.4,9.4h-1.56v-6.27h1.56c1.73,0,3.14-1.4,3.14-3.13v-10.41c0-2.68,1.15-5.24,3.15-7.03l1.3-1.15-.69-.52c-2.36-1.78-3.76-4.56-3.76-7.52v-10.96c0-1.73-1.41-3.13-3.14-3.13Z"/>
  </g>
  <path class="cls-3" d="M152.85,70.46h-9.88l-4.79-14h-14.4l-5,14h-7.75l17.27-48.79h7.27l17.27,48.79ZM135.98,49.92c-2.13-6.53-3.81-12.08-5.06-16.67-1.52,5.56-3.14,11.11-4.88,16.67h9.94Z"/>
  <path class="cls-3" d="M188.51,36.25c0,4.81-1.7,8.45-5.1,10.92-3.41,2.46-7.57,3.69-12.5,3.69h-5.46v19.6h-9.15V25.73c0-.09-.16-.76-.48-1.98-.31-1.22-.48-1.92-.52-2.08h15.48c5.33,0,9.61,1.15,12.85,3.44,3.25,2.28,4.88,5.99,4.88,11.15ZM178.78,36.25c0-2.48-.65-4.44-1.94-5.85-1.29-1.43-3.18-2.15-5.67-2.15h-5.67v16.15h5.6c2.39,0,4.26-.74,5.63-2.23,1.36-1.5,2.04-3.47,2.04-5.92Z"/>
  <path class="cls-3" d="M202.77,70.46h-9.21V25.73s-.08-.38-.23-1c-.16-.63-.31-1.27-.48-1.94-.16-.67-.23-1.04-.23-1.13h10.15v48.79Z"/>
  <path class="cls-3" d="M263.56,70.46h-9.21v-21.79h-20.46v21.79h-9.21V25.73s-.08-.38-.23-1c-.16-.63-.31-1.27-.46-1.94-.16-.67-.23-1.04-.23-1.13h10.13v20.4h20.46v-20.4h9.21v48.79Z"/>
  <path class="cls-3" d="M309.69,51.92c0,6.63-1.75,11.49-5.25,14.6-3.49,3.11-8.14,4.67-13.96,4.67-6.18,0-10.93-1.65-14.23-4.96-3.31-3.32-4.96-8.09-4.96-14.31v-26.25l-1.08-4h10.48v32.46c0,3.25.97,5.85,2.92,7.81,1.96,1.95,4.56,2.92,7.81,2.92s5.9-.95,7.83-2.85c1.93-1.92,2.9-4.54,2.9-7.88V21.67h7.54v30.25Z"/>
  <path class="cls-3" d="M351.88,56.92c0,3.17-.89,5.81-2.67,7.92-1.78,2.11-3.94,3.58-6.48,4.4-2.53.82-5.32,1.23-8.38,1.23h-17.08V25.73s-.08-.38-.23-1c-.16-.63-.31-1.27-.46-1.94-.16-.67-.23-1.04-.23-1.13h17.33c2.08,0,4,.17,5.75.5,1.76.33,3.44.91,5.04,1.71,1.59.79,2.84,1.98,3.75,3.56.92,1.57,1.38,3.45,1.38,5.63,0,2.79-.96,5.19-2.88,7.19-1.91,2-4.25,3.2-7.04,3.6,3.42.58,6.3,2.06,8.65,4.44,2.36,2.38,3.54,5.25,3.54,8.63ZM339.94,34.34c0-2.05-.61-3.58-1.83-4.58-1.22-1-2.88-1.5-4.96-1.5h-6.67v12.48h6.88c1.9,0,3.47-.59,4.71-1.77,1.25-1.18,1.88-2.72,1.88-4.63ZM342.21,55.86c0-2.79-1.02-4.91-3.06-6.35-2.04-1.44-4.53-2.17-7.46-2.17h-5.21v16.52h7.27c2.53,0,4.57-.71,6.13-2.13,1.55-1.43,2.33-3.39,2.33-5.88Z"/>
  <path class="cls-5" d="M65.2,65.96h-8.29l-4.04-11.75h-12.08l-4.21,11.75h-6.5l14.52-41h6.1l14.5,41ZM51.03,48.71c-1.79-5.48-3.22-10.15-4.27-14-1.27,4.67-2.63,9.33-4.08,14h8.35Z"/>
</svg>