<?xml version="1.0" encoding="UTF-8"?>
<svg id="Layer_2" data-name="Layer 2" xmlns="http://www.w3.org/2000/svg" xmlns:xlink="http://www.w3.org/1999/xlink" viewBox="0 0 94.02 94.02">
  <defs>
    <style>
      .cls-1 {
        clip-path: url(#clippath);
      }

      .cls-2 {
        fill: none;
      }

      .cls-2, .cls-3, .cls-4, .cls-5 {
        stroke-width: 0px;
      }

      .cls-6 {
        clip-path: url(#clippath-1);
      }

      .cls-7 {
        clip-path: url(#clippath-3);
      }

      .cls-8 {
        clip-path: url(#clippath-2);
      }

      .cls-3 {
        fill: #0b1c98;
      }

      .cls-4 {
        fill: #fff;
      }

      .cls-5 {
        fill: #efefef;
        fill-rule: evenodd;
      }
    </style>
    <clipPath id="clippath">
      <rect class="cls-2" width="94.02" height="94.02"/>
    </clipPath>
    <clipPath id="clippath-1">
      <rect class="cls-2" width="94.02" height="94.02" rx="26" ry="26"/>
    </clipPath>
    <clipPath id="clippath-2">
      <rect class="cls-2" x="9.35" y="18.82" width="17.98" height="56"/>
    </clipPath>
    <clipPath id="clippath-3">
      <rect class="cls-2" x="67.33" y="18.82" width="17.49" height="56"/>
    </clipPath>
  </defs>
  <g id="Layer_1-2" data-name="Layer 1">
    <g class="cls-1">
      <g class="cls-6">
        <path class="cls-3" d="M0,0h94.02v94.02H0V0Z"/>
      </g>
    </g>
    <g class="cls-8">
      <path class="cls-5" d="M25.02,25.09h1.57v-6.27h-1.57c-5.19,0-9.4,4.21-9.4,9.4v10.96c0,.98-.46,1.91-1.25,2.51l-3.76,2.82c-.75.56-1.21,1.44-1.25,2.38-.04.94.34,1.85,1.05,2.47l4.16,3.7c.67.59,1.05,1.45,1.05,2.34v10.41c0,5.19,4.21,9.4,9.4,9.4h1.57v-6.27h-1.57c-1.73,0-3.13-1.4-3.13-3.13v-10.41c0-2.68-1.15-5.24-3.16-7.03l-1.3-1.15.69-.52c2.37-1.78,3.76-4.56,3.76-7.52v-10.96c0-1.73,1.4-3.13,3.13-3.13h0Z"/>
    </g>
    <g class="cls-7">
      <path class="cls-5" d="M69.3,25.09h-1.56v-6.27h1.56c5.19,0,9.4,4.21,9.4,9.4v10.96c0,.98.46,1.91,1.26,2.51l3.76,2.82c.76.56,1.21,1.44,1.25,2.38.04.94-.34,1.85-1.05,2.47l-4.16,3.7c-.67.59-1.05,1.45-1.05,2.34v10.41c0,5.19-4.2,9.4-9.4,9.4h-1.56v-6.27h1.56c1.73,0,3.14-1.4,3.14-3.13v-10.41c0-2.68,1.15-5.24,3.15-7.03l1.3-1.15-.69-.52c-2.36-1.78-3.76-4.56-3.76-7.52v-10.96c0-1.73-1.41-3.13-3.14-3.13h-.01Z"/>
    </g>
    <path class="cls-4" d="M65.2,65.96h-8.29l-4.04-11.75h-12.08l-4.21,11.75h-6.5l14.52-41h6.1l14.5,41ZM51.03,48.71c-1.79-5.48-3.22-10.15-4.27-14-1.27,4.67-2.63,9.33-4.08,14h8.35Z"/>
  </g>
</svg>